<?xml version="1.0" encoding="UTF-8"?>
<svg id="Layer_2" data-name="Layer 2" xmlns="http://www.w3.org/2000/svg" viewBox="0 0 58.21 60.29">
  <g id="Layer_1-2" data-name="Layer 1">
    <path d="M51.34,34.76c-1.22,10.72-9.51,18.74-19.42,20.31l-1.38,5.01c-4.51,1-3.14-1.71-3.91-4.65-10.95-2.39-18.8-10.3-20.42-21.66-8.5,1.41-7.99-6.13-.19-5.06,2.14-10.69,9.39-19.05,20.31-20.68.31-2.6.52-11.55,4.87-6.53,0,0,.52,6.55.52,6.55,10.23,1.78,18.13,8.51,19.53,19.44,9.01,2,9.52,5.51.09,7.27ZM32.36,49.41c7.48-.67,13.76-8.53,13.73-15.23-3.86-.72-6.95-1.62-4.03-4.92,0,0,4.15-.76,4.15-.76-.12-7.63-7.45-14.46-14.46-15.04-.37,3.74-1.55,7.48-4.66,4.46,0,0-.66-4.49-.66-4.49-7.33.63-14.3,7.75-14.41,15.15l5.07,1.36c.97.26.34,3.61-.66,3.71l-4.55.45c.73,7.4,6.65,14.19,14.31,15.33l1.3-5.35c4.19-.29,3.74,2.62,4.88,5.34Z"/>
  </g>
</svg>